<mxfile host="app.diagrams.net" modified="2023-06-17T11:12:51.828Z" agent="Mozilla/5.0 (Macintosh; Intel Mac OS X 10_15_7) AppleWebKit/537.36 (KHTML, like Gecko) Chrome/113.0.0.0 Safari/537.36" etag="DrpjyL3dail1KT3ks429" version="21.4.0" type="device">
  <diagram name="Strona-1" id="tHml93n-yjBv-eoFOhE9">
    <mxGraphModel dx="1403" dy="1499" grid="1" gridSize="10" guides="1" tooltips="1" connect="1" arrows="1" fold="1" page="1" pageScale="1" pageWidth="827" pageHeight="1169" math="0" shadow="0">
      <root>
        <mxCell id="0" />
        <mxCell id="1" parent="0" />
        <mxCell id="AyHhJG-A6d1eS-8BWIQo-95" style="edgeStyle=orthogonalEdgeStyle;rounded=0;orthogonalLoop=1;jettySize=auto;html=1;exitX=0.5;exitY=1;exitDx=0;exitDy=0;entryX=0.5;entryY=0;entryDx=0;entryDy=0;" edge="1" parent="1" source="AyHhJG-A6d1eS-8BWIQo-2" target="AyHhJG-A6d1eS-8BWIQo-42">
          <mxGeometry relative="1" as="geometry" />
        </mxCell>
        <mxCell id="AyHhJG-A6d1eS-8BWIQo-2" value="SMAC" style="rounded=0;whiteSpace=wrap;html=1;fontColor=#000000;" vertex="1" parent="1">
          <mxGeometry x="367" y="580" width="120" height="60" as="geometry" />
        </mxCell>
        <mxCell id="AyHhJG-A6d1eS-8BWIQo-28" style="edgeStyle=orthogonalEdgeStyle;rounded=0;orthogonalLoop=1;jettySize=auto;html=1;exitX=0.5;exitY=1;exitDx=0;exitDy=0;entryX=0.5;entryY=0;entryDx=0;entryDy=0;fontColor=#000000;" edge="1" parent="1" source="AyHhJG-A6d1eS-8BWIQo-3" target="AyHhJG-A6d1eS-8BWIQo-2">
          <mxGeometry relative="1" as="geometry" />
        </mxCell>
        <mxCell id="AyHhJG-A6d1eS-8BWIQo-3" value="Plan&amp;nbsp;&lt;br&gt;(Operator&#39;s Labels)" style="rounded=0;whiteSpace=wrap;html=1;fontColor=#000000;" vertex="1" parent="1">
          <mxGeometry x="560" y="390" width="120" height="60" as="geometry" />
        </mxCell>
        <mxCell id="AyHhJG-A6d1eS-8BWIQo-27" style="edgeStyle=orthogonalEdgeStyle;rounded=0;orthogonalLoop=1;jettySize=auto;html=1;exitX=0.5;exitY=1;exitDx=0;exitDy=0;entryX=0.5;entryY=0;entryDx=0;entryDy=0;fontColor=#000000;" edge="1" parent="1" source="AyHhJG-A6d1eS-8BWIQo-4" target="AyHhJG-A6d1eS-8BWIQo-2">
          <mxGeometry relative="1" as="geometry">
            <mxPoint x="414" y="630" as="targetPoint" />
          </mxGeometry>
        </mxCell>
        <mxCell id="AyHhJG-A6d1eS-8BWIQo-4" value="Landmarks" style="rounded=0;whiteSpace=wrap;html=1;fontColor=#000000;" vertex="1" parent="1">
          <mxGeometry x="367" y="390" width="120" height="60" as="geometry" />
        </mxCell>
        <mxCell id="AyHhJG-A6d1eS-8BWIQo-26" style="edgeStyle=orthogonalEdgeStyle;rounded=0;orthogonalLoop=1;jettySize=auto;html=1;exitX=0.5;exitY=1;exitDx=0;exitDy=0;entryX=0.5;entryY=0;entryDx=0;entryDy=0;fontColor=#000000;" edge="1" parent="1" source="AyHhJG-A6d1eS-8BWIQo-5" target="AyHhJG-A6d1eS-8BWIQo-2">
          <mxGeometry relative="1" as="geometry" />
        </mxCell>
        <mxCell id="AyHhJG-A6d1eS-8BWIQo-37" value="Convert to Graph Representation" style="edgeLabel;html=1;align=center;verticalAlign=middle;resizable=0;points=[];fontSize=13;fontColor=#000000;" vertex="1" connectable="0" parent="AyHhJG-A6d1eS-8BWIQo-26">
          <mxGeometry x="0.6686" y="3" relative="1" as="geometry">
            <mxPoint as="offset" />
          </mxGeometry>
        </mxCell>
        <mxCell id="AyHhJG-A6d1eS-8BWIQo-5" value="Relaxed Plan" style="rounded=0;whiteSpace=wrap;html=1;fontColor=#000000;" vertex="1" parent="1">
          <mxGeometry x="180" y="390" width="120" height="60" as="geometry" />
        </mxCell>
        <mxCell id="AyHhJG-A6d1eS-8BWIQo-24" style="edgeStyle=orthogonalEdgeStyle;rounded=0;orthogonalLoop=1;jettySize=auto;html=1;exitX=0.5;exitY=1;exitDx=0;exitDy=0;fontColor=#000000;" edge="1" parent="1" source="AyHhJG-A6d1eS-8BWIQo-7" target="AyHhJG-A6d1eS-8BWIQo-4">
          <mxGeometry relative="1" as="geometry" />
        </mxCell>
        <mxCell id="AyHhJG-A6d1eS-8BWIQo-25" style="edgeStyle=orthogonalEdgeStyle;rounded=0;orthogonalLoop=1;jettySize=auto;html=1;exitX=0.5;exitY=1;exitDx=0;exitDy=0;entryX=0.5;entryY=0;entryDx=0;entryDy=0;fontColor=#000000;" edge="1" parent="1" source="AyHhJG-A6d1eS-8BWIQo-7" target="AyHhJG-A6d1eS-8BWIQo-3">
          <mxGeometry relative="1" as="geometry" />
        </mxCell>
        <mxCell id="AyHhJG-A6d1eS-8BWIQo-96" style="edgeStyle=orthogonalEdgeStyle;rounded=0;orthogonalLoop=1;jettySize=auto;html=1;exitX=0.5;exitY=1;exitDx=0;exitDy=0;entryX=0.5;entryY=0;entryDx=0;entryDy=0;" edge="1" parent="1" source="AyHhJG-A6d1eS-8BWIQo-7" target="AyHhJG-A6d1eS-8BWIQo-5">
          <mxGeometry relative="1" as="geometry" />
        </mxCell>
        <mxCell id="AyHhJG-A6d1eS-8BWIQo-7" value="Fast Downward&lt;br&gt;features &amp;amp; search" style="shape=process;whiteSpace=wrap;html=1;backgroundOutline=1;fontColor=#000000;" vertex="1" parent="1">
          <mxGeometry x="354" y="270" width="146" height="80" as="geometry" />
        </mxCell>
        <mxCell id="AyHhJG-A6d1eS-8BWIQo-22" style="edgeStyle=orthogonalEdgeStyle;rounded=0;orthogonalLoop=1;jettySize=auto;html=1;exitX=0.5;exitY=1;exitDx=0;exitDy=0;exitPerimeter=0;fontColor=#000000;" edge="1" parent="1" source="AyHhJG-A6d1eS-8BWIQo-12" target="AyHhJG-A6d1eS-8BWIQo-7">
          <mxGeometry relative="1" as="geometry" />
        </mxCell>
        <mxCell id="AyHhJG-A6d1eS-8BWIQo-12" value="&lt;span style=&quot;font-family: Helvetica; font-size: 12px; font-style: normal; font-variant-ligatures: normal; font-variant-caps: normal; font-weight: 400; letter-spacing: normal; orphans: 2; text-align: center; text-indent: 0px; text-transform: none; widows: 2; word-spacing: 0px; -webkit-text-stroke-width: 0px; text-decoration-thickness: initial; text-decoration-style: initial; text-decoration-color: initial; float: none; background-color: rgb(255, 255, 255); display: inline !important;&quot;&gt;&lt;font&gt;Domain XYZ&lt;/font&gt;&lt;/span&gt;" style="whiteSpace=wrap;html=1;shape=mxgraph.basic.document;fontColor=#000000;" vertex="1" parent="1">
          <mxGeometry x="210" y="190" width="100" height="100" as="geometry" />
        </mxCell>
        <mxCell id="AyHhJG-A6d1eS-8BWIQo-19" value="" style="group;fontColor=#000000;" vertex="1" connectable="0" parent="1">
          <mxGeometry x="530" y="170" width="130" height="120" as="geometry" />
        </mxCell>
        <mxCell id="AyHhJG-A6d1eS-8BWIQo-14" value="" style="whiteSpace=wrap;html=1;shape=mxgraph.basic.document;fontColor=#000000;" vertex="1" parent="AyHhJG-A6d1eS-8BWIQo-19">
          <mxGeometry x="30" y="20" width="100" height="100" as="geometry" />
        </mxCell>
        <mxCell id="AyHhJG-A6d1eS-8BWIQo-15" value="" style="whiteSpace=wrap;html=1;shape=mxgraph.basic.document;fontColor=#000000;" vertex="1" parent="AyHhJG-A6d1eS-8BWIQo-19">
          <mxGeometry x="20" y="10" width="100" height="100" as="geometry" />
        </mxCell>
        <mxCell id="AyHhJG-A6d1eS-8BWIQo-16" value="Unlabeled&lt;br&gt;Training Set XYZ" style="whiteSpace=wrap;html=1;shape=mxgraph.basic.document;fontColor=#000000;" vertex="1" parent="AyHhJG-A6d1eS-8BWIQo-19">
          <mxGeometry width="100" height="100" as="geometry" />
        </mxCell>
        <mxCell id="AyHhJG-A6d1eS-8BWIQo-39" style="edgeStyle=orthogonalEdgeStyle;rounded=0;orthogonalLoop=1;jettySize=auto;html=1;exitX=1;exitY=0.5;exitDx=0;exitDy=0;entryX=0;entryY=0.5;entryDx=0;entryDy=0;fontColor=#000000;" edge="1" parent="1" source="AyHhJG-A6d1eS-8BWIQo-38" target="AyHhJG-A6d1eS-8BWIQo-2">
          <mxGeometry relative="1" as="geometry" />
        </mxCell>
        <mxCell id="AyHhJG-A6d1eS-8BWIQo-38" value="Hyper-parameter&#39;s&lt;br&gt;State Space" style="rounded=0;whiteSpace=wrap;html=1;fontColor=#000000;" vertex="1" parent="1">
          <mxGeometry x="180" y="580" width="120" height="60" as="geometry" />
        </mxCell>
        <mxCell id="AyHhJG-A6d1eS-8BWIQo-42" value="Best Model" style="shape=parallelogram;perimeter=parallelogramPerimeter;whiteSpace=wrap;html=1;fixedSize=1;fontColor=#000000;" vertex="1" parent="1">
          <mxGeometry x="367" y="690" width="120" height="60" as="geometry" />
        </mxCell>
        <mxCell id="AyHhJG-A6d1eS-8BWIQo-107" style="edgeStyle=orthogonalEdgeStyle;rounded=0;orthogonalLoop=1;jettySize=auto;html=1;exitX=0.5;exitY=1;exitDx=0;exitDy=0;exitPerimeter=0;entryX=0.467;entryY=-0.001;entryDx=0;entryDy=0;entryPerimeter=0;" edge="1" parent="1" source="AyHhJG-A6d1eS-8BWIQo-67" target="AyHhJG-A6d1eS-8BWIQo-79">
          <mxGeometry relative="1" as="geometry" />
        </mxCell>
        <mxCell id="AyHhJG-A6d1eS-8BWIQo-67" value="&lt;span style=&quot;font-family: Helvetica; font-size: 12px; font-style: normal; font-variant-ligatures: normal; font-variant-caps: normal; font-weight: 400; letter-spacing: normal; orphans: 2; text-align: center; text-indent: 0px; text-transform: none; widows: 2; word-spacing: 0px; -webkit-text-stroke-width: 0px; text-decoration-thickness: initial; text-decoration-style: initial; text-decoration-color: initial; float: none; background-color: rgb(255, 255, 255); display: inline !important;&quot;&gt;Domain XYZ&lt;/span&gt;" style="whiteSpace=wrap;html=1;shape=mxgraph.basic.document;fontColor=#000000;" vertex="1" parent="1">
          <mxGeometry x="920" y="60" width="100" height="100" as="geometry" />
        </mxCell>
        <mxCell id="AyHhJG-A6d1eS-8BWIQo-68" value="" style="group;fontColor=#000000;" vertex="1" connectable="0" parent="1">
          <mxGeometry x="1300" y="50" width="130" height="120" as="geometry" />
        </mxCell>
        <mxCell id="AyHhJG-A6d1eS-8BWIQo-69" value="" style="whiteSpace=wrap;html=1;shape=mxgraph.basic.document;fontColor=#000000;" vertex="1" parent="AyHhJG-A6d1eS-8BWIQo-68">
          <mxGeometry x="30" y="20" width="100" height="100" as="geometry" />
        </mxCell>
        <mxCell id="AyHhJG-A6d1eS-8BWIQo-70" value="" style="whiteSpace=wrap;html=1;shape=mxgraph.basic.document;fontColor=#000000;" vertex="1" parent="AyHhJG-A6d1eS-8BWIQo-68">
          <mxGeometry x="20" y="10" width="100" height="100" as="geometry" />
        </mxCell>
        <mxCell id="AyHhJG-A6d1eS-8BWIQo-71" value="Unseen Problems XYZ" style="whiteSpace=wrap;html=1;shape=mxgraph.basic.document;fontColor=#000000;" vertex="1" parent="AyHhJG-A6d1eS-8BWIQo-68">
          <mxGeometry width="100" height="100" as="geometry" />
        </mxCell>
        <mxCell id="AyHhJG-A6d1eS-8BWIQo-84" style="edgeStyle=orthogonalEdgeStyle;rounded=0;orthogonalLoop=1;jettySize=auto;html=1;exitX=0.5;exitY=1;exitDx=0;exitDy=0;entryX=0.5;entryY=0;entryDx=0;entryDy=0;fontColor=#000000;" edge="1" parent="1" source="AyHhJG-A6d1eS-8BWIQo-79" target="AyHhJG-A6d1eS-8BWIQo-89">
          <mxGeometry relative="1" as="geometry">
            <mxPoint x="1150" y="570" as="targetPoint" />
            <Array as="points">
              <mxPoint x="1150" y="540" />
              <mxPoint x="1150" y="580" />
            </Array>
          </mxGeometry>
        </mxCell>
        <mxCell id="AyHhJG-A6d1eS-8BWIQo-79" value="" style="rounded=0;whiteSpace=wrap;html=1;fontColor=#000000;" vertex="1" parent="1">
          <mxGeometry x="990" y="220" width="340" height="320" as="geometry" />
        </mxCell>
        <mxCell id="AyHhJG-A6d1eS-8BWIQo-86" style="edgeStyle=orthogonalEdgeStyle;rounded=0;orthogonalLoop=1;jettySize=auto;html=1;exitX=0.5;exitY=1;exitDx=0;exitDy=0;entryX=0.5;entryY=0;entryDx=0;entryDy=0;fontColor=#000000;" edge="1" parent="1" source="AyHhJG-A6d1eS-8BWIQo-80" target="AyHhJG-A6d1eS-8BWIQo-81">
          <mxGeometry relative="1" as="geometry" />
        </mxCell>
        <mxCell id="AyHhJG-A6d1eS-8BWIQo-80" value="GNN Preprocessor" style="whiteSpace=wrap;html=1;fontColor=#000000;" vertex="1" parent="1">
          <mxGeometry x="1070" y="330" width="160" height="85" as="geometry" />
        </mxCell>
        <mxCell id="AyHhJG-A6d1eS-8BWIQo-81" value="Fast Downward&lt;br&gt;search" style="whiteSpace=wrap;html=1;fontColor=#000000;" vertex="1" parent="1">
          <mxGeometry x="1090" y="450" width="120" height="60" as="geometry" />
        </mxCell>
        <mxCell id="AyHhJG-A6d1eS-8BWIQo-85" style="edgeStyle=orthogonalEdgeStyle;rounded=0;orthogonalLoop=1;jettySize=auto;html=1;exitX=0.5;exitY=1;exitDx=0;exitDy=0;fontColor=#000000;" edge="1" parent="1" source="AyHhJG-A6d1eS-8BWIQo-83" target="AyHhJG-A6d1eS-8BWIQo-80">
          <mxGeometry relative="1" as="geometry" />
        </mxCell>
        <mxCell id="AyHhJG-A6d1eS-8BWIQo-83" value="Fast Downward&amp;nbsp;&lt;br&gt;features" style="whiteSpace=wrap;html=1;fontColor=#000000;" vertex="1" parent="1">
          <mxGeometry x="1090" y="245" width="120" height="60" as="geometry" />
        </mxCell>
        <mxCell id="AyHhJG-A6d1eS-8BWIQo-89" value="Plan" style="whiteSpace=wrap;html=1;fontColor=#000000;" vertex="1" parent="1">
          <mxGeometry x="1090" y="580" width="120" height="60" as="geometry" />
        </mxCell>
        <mxCell id="AyHhJG-A6d1eS-8BWIQo-90" value="" style="whiteSpace=wrap;html=1;fontColor=#000000;" vertex="1" parent="1">
          <mxGeometry x="320" y="-30" width="120" height="60" as="geometry" />
        </mxCell>
        <mxCell id="AyHhJG-A6d1eS-8BWIQo-91" value="" style="whiteSpace=wrap;html=1;fontColor=#000000;" vertex="1" parent="1">
          <mxGeometry x="-130" y="320" width="120" height="60" as="geometry" />
        </mxCell>
        <mxCell id="AyHhJG-A6d1eS-8BWIQo-92" value="" style="whiteSpace=wrap;html=1;fontColor=#000000;" vertex="1" parent="1">
          <mxGeometry x="1500" y="290" width="120" height="60" as="geometry" />
        </mxCell>
        <mxCell id="AyHhJG-A6d1eS-8BWIQo-93" value="" style="whiteSpace=wrap;html=1;fontColor=#000000;" vertex="1" parent="1">
          <mxGeometry x="740" y="1060" width="120" height="60" as="geometry" />
        </mxCell>
        <mxCell id="AyHhJG-A6d1eS-8BWIQo-94" style="edgeStyle=orthogonalEdgeStyle;rounded=0;orthogonalLoop=1;jettySize=auto;html=1;exitX=0.5;exitY=1;exitDx=0;exitDy=0;exitPerimeter=0;entryX=1;entryY=0.5;entryDx=0;entryDy=0;" edge="1" parent="1" source="AyHhJG-A6d1eS-8BWIQo-14" target="AyHhJG-A6d1eS-8BWIQo-7">
          <mxGeometry relative="1" as="geometry" />
        </mxCell>
        <mxCell id="AyHhJG-A6d1eS-8BWIQo-98" value="" style="group;fontColor=#000000;" vertex="1" connectable="0" parent="1">
          <mxGeometry x="550" y="560" width="130" height="120" as="geometry" />
        </mxCell>
        <mxCell id="AyHhJG-A6d1eS-8BWIQo-99" value="" style="whiteSpace=wrap;html=1;shape=mxgraph.basic.document;fontColor=#000000;" vertex="1" parent="AyHhJG-A6d1eS-8BWIQo-98">
          <mxGeometry x="30" y="20" width="100" height="100" as="geometry" />
        </mxCell>
        <mxCell id="AyHhJG-A6d1eS-8BWIQo-100" value="" style="whiteSpace=wrap;html=1;shape=mxgraph.basic.document;fontColor=#000000;" vertex="1" parent="AyHhJG-A6d1eS-8BWIQo-98">
          <mxGeometry x="20" y="10" width="100" height="100" as="geometry" />
        </mxCell>
        <mxCell id="AyHhJG-A6d1eS-8BWIQo-101" value="Evaluation&lt;br&gt;Set XYZ" style="whiteSpace=wrap;html=1;shape=mxgraph.basic.document;fontColor=#000000;" vertex="1" parent="AyHhJG-A6d1eS-8BWIQo-98">
          <mxGeometry width="100" height="100" as="geometry" />
        </mxCell>
        <mxCell id="AyHhJG-A6d1eS-8BWIQo-102" style="edgeStyle=orthogonalEdgeStyle;rounded=0;orthogonalLoop=1;jettySize=auto;html=1;exitX=0;exitY=0.5;exitDx=0;exitDy=0;exitPerimeter=0;entryX=1;entryY=0.5;entryDx=0;entryDy=0;" edge="1" parent="1" source="AyHhJG-A6d1eS-8BWIQo-101" target="AyHhJG-A6d1eS-8BWIQo-2">
          <mxGeometry relative="1" as="geometry" />
        </mxCell>
        <mxCell id="AyHhJG-A6d1eS-8BWIQo-103" value="Best Model" style="shape=parallelogram;perimeter=parallelogramPerimeter;whiteSpace=wrap;html=1;fixedSize=1;fontColor=#000000;" vertex="1" parent="1">
          <mxGeometry x="1130" y="392" width="99" height="20" as="geometry" />
        </mxCell>
        <mxCell id="AyHhJG-A6d1eS-8BWIQo-108" style="edgeStyle=orthogonalEdgeStyle;rounded=0;orthogonalLoop=1;jettySize=auto;html=1;exitX=0.5;exitY=1;exitDx=0;exitDy=0;exitPerimeter=0;entryX=0.467;entryY=-0.001;entryDx=0;entryDy=0;entryPerimeter=0;" edge="1" parent="1" source="AyHhJG-A6d1eS-8BWIQo-69" target="AyHhJG-A6d1eS-8BWIQo-79">
          <mxGeometry relative="1" as="geometry">
            <Array as="points">
              <mxPoint x="1380" y="190" />
              <mxPoint x="1149" y="190" />
            </Array>
          </mxGeometry>
        </mxCell>
      </root>
    </mxGraphModel>
  </diagram>
</mxfile>
